PathFileType	4	(X/Y/Z)	Patient4_TMGait_0pt5_01_right_27.trc.trc
DataRate	CameraRate	NumFrames	NumMarkers	Units	OrigDataRate	OrigDataStartFrame	OrigNumFrames
75.675675675676	75.675675675676	4	33	mm	75.675675675676	71	       141
Frame#	Time	L.ASIS			Sacral			L.Shoulder			Chest			R.Shoulder			Neck			R.ASIS			R.Thigh.Superior			R.Thigh.Lateral			R.Thigh.Inferior			R.Patella			L.Thigh.Superior			L.Thigh.Lateral			L.Thigh.Inferior			L.Patella			L.Shank.Superior			L.Shank.Lateral			L.Shank.Inferior			R.Shank.Superior			R.Shank.Lateral			R.Shank.Inferior			R.Heel			R.Midfoot.Superior			R.Midfoot.Lateral			R.Toe			L.Heel			L.Midfoot.Lateral			L.Midfoot.Superior			L.Toe			L.Elbow			L.Wrist			R.Elbow			R.Wrist			
		X1	Y1	Z1	X2	Y2	Z2	X3	Y3	Z3	X4	Y4	Z4	X5	Y5	Z5	X6	Y6	Z6	X7	Y7	Z7	X8	Y8	Z8	X9	Y9	Z9	X10	Y10	Z10	X11	Y11	Z11	X12	Y12	Z12	X13	Y13	Z13	X14	Y14	Z14	X15	Y15	Z15	X16	Y16	Z16	X17	Y17	Z17	X18	Y18	Z18	X19	Y19	Z19	X20	Y20	Z20	X21	Y21	Z21	X22	Y22	Z22	X23	Y23	Z23	X24	Y24	Z24	X25	Y25	Z25	X26	Y26	Z26	X27	Y27	Z27	X28	Y28	Z28	X29	Y29	Z29	X30	Y30	Z30	X31	Y31	Z31	X32	Y32	Z32	X33	Y33	Z33	

71	36.355000000000	855.325819814605	951.085629064280	345.063258285017	655.636541183850	999.061440053834	519.935989836856	812.456496932978	1429.120411806455	335.865644798790	931.880047582345	1352.717954374350	481.566744798379	870.262317233575	1422.180716498602	666.955439012391	833.153258251886	1485.650724277496	487.848465121120	889.545330042333	929.320999677456	617.905357918187	889.786048620650	718.628394934978	588.105379297735	788.942132529512	624.255271191123	652.266062731452	847.409873722421	559.175646134366	570.148791582670	827.358274319151	472.049504895746	573.492439590764	932.663570668938	766.914505953856	373.086663191466	878.238831361761	637.040657353135	301.668578057906	981.701513219116	578.180670745530	361.727767259690	1006.962543137258	511.175081899778	361.078640019594	989.516888714704	438.428517531445	352.655096242865	920.139841488506	310.445908628301	301.931964379552	1002.413581358370	209.525502939090	360.236330905793	785.569065484969	388.366710223662	581.007428733297	699.002515971927	298.001066198885	643.578207323260	720.473246065283	198.273014072627	579.373635997741	561.709966715076	45.899883861696	550.365981221061	733.572268373291	96.188013655334	587.423621407429	643.858107863872	37.297938088647	625.733536200179	852.168926368363	39.051983934570	618.990595808601	908.513327506384	38.583011566165	397.790549957803	984.282937238054	38.434978454915	319.080076483179	1060.597940331787	108.360891890012	342.182396255511	1191.850426535230	68.520317870648	318.868955411738	696.621474309883	1094.157386020326	224.912336074439	715.120812218099	835.735155943315	189.451474559165	974.122032765168	1092.766808598855	772.312204485936	1220.359240213901	1066.549486142080	707.848843498186	
72	36.368214285714	857.359690972970	950.091082719821	342.984466926565	657.423560811623	998.066347752132	517.511583618208	811.863672437380	1428.192212486409	332.903269550736	931.871410645228	1352.683108468886	478.578289027309	869.912249495097	1421.900523095543	663.965497766768	832.377473518656	1485.021539880162	484.760857798807	891.400281873442	928.534900210929	615.736132478958	890.181161474501	717.396754962007	586.554229577164	788.173312243467	623.853059731788	650.672031758646	846.086567054840	558.004156370366	568.819521893792	825.085680067396	470.812248926242	572.051670375656	934.871192055121	765.712189637421	371.577886999485	879.521090062393	635.648997015226	301.129954931990	983.269450695297	577.123428068774	361.000658825793	1007.599431221999	509.160165474359	360.781557241571	989.438580845138	435.927473319938	352.511709077193	918.034368475961	308.798043332407	302.358096482404	998.524923234144	206.802220472045	361.109736798794	782.430018773303	387.718784997812	579.881492341432	695.078060141312	298.404669397078	642.928340539976	715.260773010971	198.297440321346	578.992066532212	555.200477079932	46.828485293730	550.555189819619	727.205865759006	96.397406721065	587.496393909812	637.380369703524	37.709896897707	625.836544924488	845.641183199346	38.796614311268	619.033516685627	901.121512257642	38.146347099777	398.650727053548	976.832052903424	37.304878582163	319.777404362206	1054.803058271642	105.100174067553	343.883921958226	1185.328964199387	62.411273443027	320.048600617742	695.790958760977	1093.312853902537	222.537741963360	714.846817410866	834.808731444925	187.463369063893	973.879292921944	1092.057231879063	768.263732394241	1219.533334528365	1072.597863769913	700.542133340651	
73	36.381428571429	859.396505377967	949.264476333423	340.737904408234	659.183494468692	997.290343091659	514.889549609842	811.550593562886	1427.385378301866	329.831339330944	932.063347100090	1352.672715353206	475.501258401606	869.788760739977	1421.712322307802	660.859401260914	831.871462690474	1484.505305109328	481.565177196944	893.151906664225	927.817742729911	613.395006244876	890.617201771969	716.300188766623	584.888833277994	787.565656573566	623.537704621937	648.932156873601	845.069367492410	556.944608411417	567.386484080455	823.233256834342	469.553897995415	570.588871248814	936.986620874110	764.732121278853	370.201353188898	881.073591553477	634.648543445579	300.389609140932	984.913352218862	576.353119000811	360.346669380134	1008.237150364648	507.415103345748	360.483924289928	989.408856793350	433.733066812709	352.234176831132	916.147751689118	307.485417709285	302.450993690995	994.712275954473	204.452705654643	361.775185408057	779.582232299080	387.113085257587	578.697370488564	691.352604354056	298.963121208996	642.218742556849	710.207425448095	198.455207880346	578.621866468701	548.733677558877	48.052830947944	550.787618009597	720.955959934983	96.689191955988	587.606324398264	630.951693725459	38.286616516494	625.970895553092	839.154185696683	38.526738375928	619.068383504171	893.910741182728	37.861433872083	399.228341854147	969.644702710519	36.470943705408	320.279211679565	1048.982492839974	102.407357324435	345.385493336933	1178.899966975223	57.327918010558	321.223621816376	695.531437385729	1092.452866894458	220.010925764722	715.448171480574	833.862313209374	185.437132349570	973.434670597988	1091.338633589461	764.298015714391	1218.282554319888	1077.683949204118	693.396622748313	
74	36.394642857143	861.384361316537	948.661215804109	338.303708338453	660.869644340477	996.758441565394	512.082879437075	811.511227101590	1426.741215345868	326.668820253473	932.444914792290	1352.706464539285	472.348194425697	869.906667305546	1421.658803384800	657.649076670324	831.652736461217	1484.136195756606	478.279312431280	894.755296780251	927.221196617920	610.880698305656	891.092274409424	715.390197218919	583.078672604618	787.176046132716	623.320219633023	647.045642350042	844.435630946176	556.027471689233	565.845709227184	821.913072567211	468.272568976744	569.140138625760	939.019107675079	764.075080216832	368.941997324021	882.910250336088	634.089208368790	299.439398281797	986.621377384200	575.895930444365	359.731858584411	1008.879948742731	505.986868754637	360.161692694132	989.416585385165	431.894722462536	351.834809681614	914.480259083800	306.560492704247	302.196000453357	990.963307870723	202.532459618159	362.218569662373	777.102754734800	386.549728917562	577.470577725885	687.879409565281	299.698315893968	641.452492170720	705.362690739221	198.763194400685	578.268467997234	542.327612499950	49.633576165905	551.058735531022	714.859063921089	97.065577331019	587.754542789157	624.581757759077	39.060503743683	626.130280724566	832.711451259497	38.254545221199	619.090992843440	886.948653758722	37.717503591017	399.552030909930	962.754551091764	35.920514756579	320.586118726762	1043.138572901656	100.343392719887	346.603346787699	1172.582204958356	53.409917355351	322.264753895554	695.858106293829	1091.617610717329	217.329177132684	716.909528392068	832.939683979512	183.375465258742	972.805047757749	1090.673481786898	760.446354512227	1216.696482616970	1081.744279179090	686.481679414268	
